<?xml version="1.0" encoding="UTF-8" standalone="no"?>
<!-- Created with Inkscape (http://www.inkscape.org/) -->

<svg
   xmlns:dc="http://purl.org/dc/elements/1.1/"
   xmlns:cc="http://creativecommons.org/ns#"
   xmlns:rdf="http://www.w3.org/1999/02/22-rdf-syntax-ns#"
   xmlns:svg="http://www.w3.org/2000/svg"
   xmlns="http://www.w3.org/2000/svg"
   xmlns:sodipodi="http://sodipodi.sourceforge.net/DTD/sodipodi-0.dtd"
   xmlns:inkscape="http://www.inkscape.org/namespaces/inkscape"
   width="210mm"
   height="297mm"
   viewBox="0 0 744.09448819 1052.3622047"
   id="svg2"
   version="1.1"
   inkscape:version="0.91 r13725"
   sodipodi:docname="titlepage.svg">
  <defs
     id="defs4" />
  <sodipodi:namedview
     id="base"
     pagecolor="#ffffff"
     bordercolor="#666666"
     borderopacity="1.0"
     inkscape:pageopacity="0.0"
     inkscape:pageshadow="2"
     inkscape:zoom="0.5"
     inkscape:cx="679.77785"
     inkscape:cy="91.872127"
     inkscape:document-units="px"
     inkscape:current-layer="layer1"
     showgrid="false"
     inkscape:window-width="1920"
     inkscape:window-height="1016"
     inkscape:window-x="1920"
     inkscape:window-y="27"
     inkscape:window-maximized="1" />
  <metadata
     id="metadata7">
    <rdf:RDF>
      <cc:Work
         rdf:about="">
        <dc:format>image/svg+xml</dc:format>
        <dc:type
           rdf:resource="http://purl.org/dc/dcmitype/StillImage" />
        <dc:title></dc:title>
      </cc:Work>
    </rdf:RDF>
  </metadata>
  <g
     inkscape:label="Ebene 1"
     inkscape:groupmode="layer"
     id="layer1"
     style="display:inline">
    <rect
       style="fill:#f0f0df;fill-opacity:1;stroke:#f0f0df;stroke-width:0.84784782;stroke-miterlimit:4;stroke-dasharray:none;stroke-dashoffset:0;stroke-opacity:1"
       id="rect4136"
       width="516.47498"
       height="84.191528"
       x="0.42392373"
       y="0.42392096" />
    <rect
       style="fill:#f0f0df;fill-opacity:1;stroke:#f0f0df;stroke-width:1.13935697;stroke-miterlimit:4;stroke-dasharray:none;stroke-dashoffset:0;stroke-opacity:1"
       id="rect4138"
       width="232.71892"
       height="55.553555"
       x="514.34918"
       y="0.56967694" />
    <rect
       style="display:inline;fill:#f0f0df;fill-opacity:1;stroke:#f0f0df;stroke-width:1.13935709;stroke-miterlimit:4;stroke-dasharray:none;stroke-dashoffset:0;stroke-opacity:1"
       id="rect4138-1"
       width="232.71892"
       height="55.553555"
       x="517.89252"
       y="1003.3256" />
    <g
       transform="matrix(0.02167879,0,0,-0.02167879,33.661417,63.779528)"
       id="g4190">
      <path
         inkscape:connector-curvature="0"
         id="path14"
         style="fill:#231f20;fill-opacity:1;fill-rule:nonzero;stroke:none"
         d="m 2505.2,1426.63 125,0 0,-416.01 c 0,-95.991 6,-206.999 168,-206.999 162,0 168,111.008 168,206.999 l 0,416.01 125,0 0,-457.005 c 0,-182.996 -117,-274.004 -293,-274.004 -176,0 -293,91.008 -293,274.004 l 0,457.005" />
      <path
         inkscape:connector-curvature="0"
         id="path16"
         style="fill:#231f20;fill-opacity:1;fill-rule:nonzero;stroke:none"
         d="m 3223.18,1229.63 108,0 0,-76 2,-2 c 34,57 93,92 161,92 112,0 183,-60 183,-176 l 0,-355.009 -114,0 0,325.009 c -2,81 -34,116 -101,116 -76,0 -125,-60 -125,-136 l 0,-305.009 -114,0 0,517.009" />
      <path
         inkscape:connector-curvature="0"
         id="path18"
         style="fill:#231f20;fill-opacity:1;fill-rule:nonzero;stroke:none"
         d="m 3804.17,1426.63 114,0 0,-108 -114,0 0,108 z m 0,-197 114,0 0,-517.009 -114,0 0,517.009" />
      <path
         inkscape:connector-curvature="0"
         id="path20"
         style="fill:#231f20;fill-opacity:1;fill-rule:nonzero;stroke:none"
         d="m 3995.17,1229.63 124,0 131,-397.009 2,0 126,397.009 118,0 -185,-517.009 -128,0 -188,517.009" />
      <path
         inkscape:connector-curvature="0"
         id="path22"
         style="fill:#231f20;fill-opacity:1;fill-rule:nonzero;stroke:none"
         d="m 5038.17,941.629 c 19,155.001 -81,302.001 -244,302.001 -154,0 -250,-126 -250,-273.009 0,-158.992 91,-272 253,-272 113,0 209,63.008 234,176.008 l -108,0 c -20,-57.008 -60,-86.008 -126,-86.008 -95,0 -139,72 -139,153.008 l 380,0 z m -380,75.001 c 3,77 57,137 136,137 77,0 126,-65 130,-137 l -266,0" />
      <path
         inkscape:connector-curvature="0"
         id="path24"
         style="fill:#231f20;fill-opacity:1;fill-rule:nonzero;stroke:none"
         d="m 5129.17,1229.63 107,0 0,-100 1.99,0 c 13.01,55 81.01,114 151.01,114 26,0 33,-2 43,-3 l 0,-110 c -16,2 -33,5 -49,5 -78,0 -140.01,-63 -140.01,-177.001 l 0,-246.008 -113.99,0 0,517.009" />
      <path
         inkscape:connector-curvature="0"
         id="path26"
         style="fill:#231f20;fill-opacity:1;fill-rule:nonzero;stroke:none"
         d="m 5571.16,878.621 c 6,-66 56,-90 116.99,-90 43,0 118,9 115,68.008 -2.99,60 -85.99,66.992 -168.99,85.992 -84,18 -166.01,48 -166.01,153.009 0,113 122.01,148 216.01,148 106,0 201.99,-44 216,-159 l -119.01,0 c -10,54 -55,69 -105,69 -33,0 -93.99,-8 -93.99,-53 0,-56 83.99,-64 168,-83 82.99,-19.001 167,-49.001 167,-151.001 0,-123.008 -124.01,-168.008 -231.01,-168.008 -129.99,0 -226.99,58.008 -228.99,180 l 114,0" />
      <path
         inkscape:connector-curvature="0"
         id="path28"
         style="fill:#231f20;fill-opacity:1;fill-rule:nonzero;stroke:none"
         d="m 6011.15,1426.63 114.01,0 0,-108 -114.01,0 0,108 z m 0,-197 114.01,0 0,-517.009 -114.01,0 0,517.009" />
      <path
         inkscape:connector-curvature="0"
         id="path30"
         style="fill:#231f20;fill-opacity:1;fill-rule:nonzero;stroke:none"
         d="m 6201.15,1229.63 86,0 0,155 114,0 0,-155 103,0 0,-85 -103,0 0,-276.009 c 0,-46.992 4,-71 55,-71 16,0 32,0 48,4.008 l 0,-88.008 c -25,-1.992 -49,-6 -74,-6 -119,0 -141,46 -143,132.008 l 0,305.001 -86,0 0,85" />
      <path
         inkscape:connector-curvature="0"
         id="path32"
         style="fill:#231f20;fill-opacity:1;fill-rule:nonzero;stroke:none"
         d="m 7023.14,1093.63 c 0,109 -105.99,150 -207,150 -114,0 -227,-39 -235,-172 l 114.01,0 c 5,56 50,82 113.99,82 46.01,0 107,-11 107,-70 0,-67 -73,-58.01 -155,-73.01 -95.99,-10.995 -199,-31.991 -199,-160.991 0,-101.008 84,-151.008 177,-151.008 61.01,0 134,19 179,63.008 9.01,-47 42.01,-63.008 88,-63.008 19.01,0 55,7 72,13.008 l 0,78.992 c -12,-2 -20.99,-2 -27.99,-2 -21.01,0 -27.01,11.008 -27.01,39 l 0,266.009 z m -242.99,218 0,108 -114.01,0 0,-108 114.01,0 z m 57.99,108 0,-108 114.01,0 0,108 -114.01,0 z m 71,-533.001 c 0,-72 -78,-98.008 -128,-98.008 -40,0 -105,15 -105,66.008 0,60 44.01,77.992 93,85.992 50,9.008 105,8.008 140,31.008 l 0,-85" />
      <path
         inkscape:connector-curvature="0"
         id="path34"
         style="fill:#231f20;fill-opacity:1;fill-rule:nonzero;stroke:none"
         d="m 7098.14,1229.63 86,0 0,155 114,0 0,-155 103,0 0,-85 -103,0 0,-276.009 c 0,-46.992 4,-71 55,-71 16,0 32.01,0 48,4.008 l 0,-88.008 c -25,-1.992 -49,-6 -74,-6 -119,0 -141,46 -143,132.008 l 0,305.001 -86,0 0,85" />
      <path
         inkscape:connector-curvature="0"
         id="path36"
         style="fill:#231f20;fill-opacity:1;fill-rule:nonzero;stroke:none"
         d="m 7910.14,1324.63 204,0 c 68,0 105,-26 105,-98 0,-64 -45,-99 -105,-99 l -204,0 0,197 z m -125,-612.009 327.99,0 c 185,0 263,87.008 263,199.008 0,97.001 -46.99,165.001 -133.99,184.001 l 0,2 c 65,28 102,80 102,152 0,119 -84,177 -212,177 l -347,0 0,-714.009 z m 125,325.009 220.99,0 c 76.01,0 120,-40.005 120,-110.009 0,-72 -43.99,-112.992 -120,-112.992 l -220.99,0 0,223.001" />
      <path
         inkscape:connector-curvature="0"
         id="path38"
         style="fill:#231f20;fill-opacity:1;fill-rule:nonzero;stroke:none"
         d="m 8477.13,1229.63 107,0 0,-100 2,0 c 13,55 81,114 151,114 26,0 33,-2 43,-3 l 0,-110 c -16,2 -33,5 -49,5 -78,0 -140,-63 -140,-177.001 l 0,-246.008 -114,0 0,517.009" />
      <path
         inkscape:connector-curvature="0"
         id="path40"
         style="fill:#231f20;fill-opacity:1;fill-rule:nonzero;stroke:none"
         d="m 9284.3,941.629 c 19,155.001 -81,302.001 -244,302.001 -154,0 -250.01,-126 -250.01,-273.009 0,-158.992 91.01,-272 253.01,-272 113,0 208.99,63.008 233.99,176.008 l -107.99,0 c -20,-57.008 -60,-86.008 -126,-86.008 -95,0 -139,72 -139,153.008 l 380,0 z m -380,75.001 c 2.99,77 57,137 136,137 76.99,0 126,-65 130,-137 l -266,0" />
      <path
         inkscape:connector-curvature="0"
         id="path42"
         style="fill:#231f20;fill-opacity:1;fill-rule:nonzero;stroke:none"
         d="m 9375.29,1229.63 108.01,0 0,-72 3,0 c 33.99,51 77,86 159,86 63,0 121.99,-27 145,-86 38,53 86.99,86 162,86 109,0 173,-48 173,-174 l 0,-357.009 -114,0 0,302.009 c 0,82 -5,139 -94,139 -77,0 -110.01,-51 -110.01,-138.01 l 0,-302.999 -113.99,0 0,332.009 c 0,71 -22,109 -91.01,109 -58.99,0 -112.99,-48 -112.99,-134 l 0,-307.009 -114.01,0 0,517.009" />
      <path
         inkscape:connector-curvature="0"
         id="path44"
         style="fill:#231f20;fill-opacity:1;fill-rule:nonzero;stroke:none"
         d="m 10718.3,941.629 c 19,155.001 -81,302.001 -244,302.001 -154,0 -250,-126 -250,-273.009 0,-158.992 91,-272 253,-272 113,0 209,63.008 234,176.008 l -108,0 c -20,-57.008 -60,-86.008 -126,-86.008 -95,0 -139,72 -139,153.008 l 380,0 z m -380,75.001 c 3,77 57,137 136,137 77,0 126,-65 130,-137 l -266,0" />
      <path
         inkscape:connector-curvature="0"
         id="path46"
         style="fill:#231f20;fill-opacity:1;fill-rule:nonzero;stroke:none"
         d="m 10809.3,1229.63 108,0 0,-76 2,-2 c 34,57 93,92 161,92 112,0 183,-60 183,-176 l 0,-355.009 -114,0 0,325.009 c -2,81 -34,116 -101,116 -76,0 -125,-60 -125,-136 l 0,-305.009 -114,0 0,517.009" />
      <path
         inkscape:connector-curvature="0"
         id="path48"
         style="fill:#da193b;fill-opacity:1;fill-rule:nonzero;stroke:none"
         d="M 713.219,1064.21 C 713.066,867.41 875.344,713.211 1070,713.211 c 196.39,0 356.44,154.379 356.44,350.999 l 0,897.14 -178.31,0 0,-897.14 c 0,-98.304 -79.77,-172.87 -178.13,-172.87 -95.309,0 -178.441,77.515 -178.473,172.87 l 0,539.88 -178.308,0 0,-539.88" />
      <path
         inkscape:connector-curvature="0"
         id="path50"
         style="fill:#da193b;fill-opacity:1;fill-rule:nonzero;stroke:none"
         d="m 0,1783.04 178.316,0 0,178.309 -178.316,0 0,-178.309 z" />
      <path
         inkscape:connector-curvature="0"
         id="path52"
         style="fill:#da193b;fill-opacity:1;fill-rule:nonzero;stroke:none"
         d="m 178.316,1604.74 178.301,0 0,178.305 -178.301,0 0,-178.305 z" />
      <path
         inkscape:connector-curvature="0"
         id="path54"
         style="fill:#da193b;fill-opacity:1;fill-rule:nonzero;stroke:none"
         d="m 356.617,1783.04 178.305,0 0,178.309 -178.305,0 0,-178.309 z" />
      <path
         inkscape:connector-curvature="0"
         id="path56"
         style="fill:#da193b;fill-opacity:1;fill-rule:nonzero;stroke:none"
         d="m 713.219,1783.04 178.309,0 0,178.309 -178.309,0 0,-178.309 z" />
      <path
         inkscape:connector-curvature="0"
         id="path58"
         style="fill:#da193b;fill-opacity:1;fill-rule:nonzero;stroke:none"
         d="m 534.922,1604.74 178.297,0 0,178.305 -178.297,0 0,-178.305 z" />
      <path
         inkscape:connector-curvature="0"
         id="path60"
         style="fill:#da193b;fill-opacity:1;fill-rule:nonzero;stroke:none"
         d="m 2139.66,1960.92 0,-896.71 C 2139.66,475.52 1660.16,0 1070.86,0 481.672,0 0,475.43 0,1064.21 l 0,540.49 178.434,-0.43 -0.118,-540.06 c 0,-490.538 401.356,-886.319 892.544,-886.319 491.08,0 890.49,395.781 890.49,886.319 l 0,897.14 178.31,-0.43" />
      <path
         inkscape:connector-curvature="0"
         id="path62"
         style="fill:#da193b;fill-opacity:1;fill-rule:nonzero;stroke:none"
         d="m 1604.75,1961.35 0,-897.14 c 0,-294.698 -240.34,-529.288 -535.13,-529.288 -294.956,0 -534.698,234.59 -534.698,529.288 l 0,540.75 -178.305,0 0,-540.75 c 0,-392.999 319.922,-707.608 713.003,-707.608 393.09,0 713.44,314.609 713.44,707.608 l 0,897.03 -178.31,0.11" />
    </g>
  </g>
</svg>
